<?xml version="1.0" standalone="no"?>
<!DOCTYPE svg PUBLIC "-//W3C//DTD SVG 20010904//EN"
 "http://www.w3.org/TR/2001/REC-SVG-20010904/DTD/svg10.dtd">
<svg version="1.0" xmlns="http://www.w3.org/2000/svg"
 width="1024.000000pt" height="1024.000000pt" viewBox="0 0 1024.000000 1024.000000"
 preserveAspectRatio="xMidYMid meet">

<g transform="translate(0.000000,1024.000000) scale(0.100000,-0.100000)"
fill="#000000" stroke="none">
<path d="M7063 8689 c-40 -12 -79 -61 -91 -116 -6 -25 -6 -76 -1 -125 5 -46
20 -193 34 -328 14 -135 39 -375 55 -535 16 -159 39 -375 50 -480 26 -249 27
-230 -19 -243 -72 -22 -125 -82 -190 -215 -33 -67 -76 -148 -96 -180 l-37 -57
-56 51 c-31 28 -67 56 -79 62 -13 5 -23 13 -23 16 0 4 39 15 87 26 86 18 123
40 123 70 0 78 -182 259 -337 336 -70 35 -82 44 -66 50 37 13 164 99 169 114
13 34 -7 61 -83 112 -92 61 -183 99 -273 115 l-65 11 27 56 c38 77 52 152 45
237 -13 149 -88 268 -204 326 -62 30 -75 33 -158 33 -77 -1 -97 -5 -140 -27
-27 -15 -65 -40 -84 -56 l-35 -29 -22 65 c-24 68 -95 192 -143 251 -29 36 -78
46 -93 20 -5 -8 -36 -60 -69 -117 l-61 -103 -43 75 c-73 129 -164 231 -289
324 -36 27 -82 29 -95 5 -5 -10 -19 -67 -31 -128 -31 -161 -27 -153 -62 -110
-80 96 -323 250 -416 262 -61 8 -66 -5 -63 -173 1 -79 0 -144 -2 -144 -2 0
-29 11 -58 24 -115 50 -411 106 -494 92 -17 -2 -49 -5 -72 -5 -34 -1 -46 -6
-59 -27 -16 -24 -16 -27 4 -67 11 -23 39 -82 61 -131 l41 -88 -32 6 c-18 3
-104 9 -191 12 -176 8 -277 -3 -417 -43 -152 -44 -155 -64 -25 -189 l96 -91
-67 -7 c-97 -10 -314 -68 -428 -115 -180 -74 -316 -169 -316 -221 0 -15 6 -32
13 -38 10 -8 159 -70 231 -96 15 -5 0 -16 -65 -49 -239 -122 -519 -368 -519
-457 0 -36 17 -50 65 -50 64 0 245 -23 245 -31 0 -4 -8 -10 -19 -14 -28 -9
-190 -180 -261 -275 -69 -94 -130 -207 -130 -242 0 -47 11 -52 107 -44 48 4
124 13 168 20 44 7 82 11 84 9 3 -2 -11 -20 -31 -41 -116 -123 -278 -402 -314
-543 -14 -55 -14 -62 0 -85 10 -14 26 -24 39 -24 12 1 84 18 160 39 76 21 137
36 135 32 -2 -3 -29 -46 -62 -95 -113 -172 -201 -369 -237 -526 -26 -120 -25
-156 6 -176 24 -16 30 -15 138 24 61 22 120 43 130 47 12 5 5 -13 -25 -61
-138 -228 -228 -487 -228 -659 0 -69 2 -76 26 -91 25 -17 28 -16 156 50 92 47
128 61 123 49 -41 -101 -81 -261 -95 -375 -14 -118 1 -263 30 -292 27 -27 53
-17 166 69 l99 76 6 -163 c10 -254 51 -413 136 -526 19 -25 31 -32 51 -30 22
2 41 24 101 116 l74 113 27 -68 c67 -173 174 -328 295 -426 151 -123 183 -108
201 91 l7 71 71 -73 c39 -40 83 -82 97 -92 25 -18 26 -22 19 -79 -12 -90 -11
-257 1 -317 36 -172 147 -276 349 -329 67 -18 114 -22 220 -23 181 -1 257 21
335 97 65 64 80 109 71 217 -19 219 -19 242 6 317 l23 73 295 4 c189 3 334 10
405 20 61 8 130 18 155 21 l45 7 24 -89 c105 -388 261 -519 601 -498 261 16
468 108 500 223 29 105 2 194 -90 299 -36 42 -73 87 -82 102 -23 33 -44 107
-58 199 l-12 72 47 62 c57 76 114 174 146 250 13 32 28 56 33 55 5 -2 26 -32
47 -67 20 -36 46 -78 56 -95 39 -64 85 -39 143 77 67 137 83 216 84 410 1 93
2 168 3 168 1 0 37 -22 79 -50 72 -47 77 -49 107 -36 28 11 33 18 40 67 29
188 -31 473 -144 688 -35 65 -37 73 -19 68 11 -3 63 -16 116 -28 l96 -23 20
24 c25 30 19 80 -23 194 -51 140 -197 374 -296 472 -18 18 -33 35 -33 37 0 2
19 4 43 5 96 3 203 15 215 24 35 29 -19 166 -109 277 l-47 58 81 84 c92 94
235 261 269 314 27 41 31 42 45 12 25 -54 129 -72 188 -33 61 40 70 93 50 278
l-11 98 29 28 c51 48 87 121 87 178 0 28 7 68 15 87 19 46 19 118 1 162 -9 21
-12 49 -9 70 8 48 -21 119 -61 150 -18 13 -55 30 -83 36 l-50 12 -17 156 c-22
217 -26 198 42 211 145 30 314 111 537 260 83 55 266 161 580 335 253 140 394
232 426 276 31 44 39 81 24 117 -18 41 -54 58 -183 87 -187 42 -241 55 -512
125 -540 141 -806 177 -1000 135 -67 -14 -80 -13 -80 9 0 24 -43 68 -84 87
-45 21 -56 21 -103 8z m87 -109 c11 -11 20 -27 20 -36 0 -13 41 -435 85 -869
3 -27 21 -198 40 -380 19 -181 38 -355 41 -386 5 -54 5 -56 -29 -82 l-34 -26
-22 23 c-13 14 -21 35 -21 59 0 20 -13 162 -30 314 -16 153 -39 375 -50 493
-12 118 -30 292 -40 385 -53 460 -53 471 -22 508 20 22 37 22 62 -3z m489 -90
c139 -15 302 -50 716 -155 204 -51 408 -101 455 -110 131 -25 126 -23 99 -51
-30 -32 -158 -111 -355 -220 -356 -196 -488 -272 -664 -386 -102 -66 -205
-130 -230 -143 -84 -42 -264 -92 -274 -76 -2 3 -9 60 -15 126 -47 492 -91 935
-97 967 -5 24 -2 28 33 37 84 22 193 25 332 11z m-3227 -209 c37 -22 94 -60
126 -84 61 -48 212 -202 212 -218 0 -13 47 -11 55 2 10 15 65 269 65 299 0 22
7 17 71 -45 89 -88 149 -171 208 -288 66 -131 73 -130 172 35 56 92 80 124 87
115 26 -32 84 -165 107 -243 34 -116 33 -137 -5 -151 -22 -8 -30 -18 -30 -37
0 -26 32 -56 60 -56 33 0 178 -79 250 -137 139 -110 250 -270 349 -501 23 -53
63 -122 99 -168 95 -124 143 -233 163 -367 33 -238 -94 -517 -318 -697 -83
-67 -99 -90 -83 -121 23 -41 84 -10 212 107 38 35 105 89 151 121 103 72 326
295 433 433 80 104 132 189 209 345 51 101 93 145 140 145 26 0 39 -6 51 -25
14 -22 15 -36 6 -104 -13 -106 -48 -180 -95 -206 -26 -14 -37 -26 -37 -43 0
-29 23 -38 66 -24 33 10 34 9 34 -17 0 -15 10 -45 21 -66 15 -28 25 -75 34
-160 l13 -120 -53 -80 c-110 -170 -256 -333 -450 -505 -137 -121 -328 -280
-336 -280 -4 0 -12 14 -19 30 -12 29 -44 60 -62 60 -4 0 -15 -11 -23 -24 -15
-22 -13 -34 41 -197 120 -371 186 -749 186 -1069 0 -427 -89 -754 -284 -1045
l-60 -89 7 -89 c7 -90 34 -207 60 -257 8 -15 43 -59 79 -98 74 -80 82 -93 95
-153 11 -50 -2 -91 -42 -128 -32 -29 -43 -23 -51 31 -9 54 -31 88 -57 88 -27
0 -33 -23 -21 -73 25 -100 25 -103 -19 -116 -22 -7 -61 -15 -88 -18 l-48 -5
-5 38 c-3 22 -13 56 -22 77 -13 33 -19 38 -43 35 -31 -3 -33 -17 -18 -112 l8
-49 -94 5 c-205 9 -300 101 -390 377 -21 64 -35 119 -33 123 3 4 24 12 47 19
64 16 87 35 87 69 0 39 -29 55 -73 41 -71 -22 -281 -60 -427 -77 -164 -19
-489 -25 -615 -11 -52 6 -75 4 -88 -5 -10 -7 -31 -59 -48 -118 -35 -116 -40
-190 -25 -367 8 -89 7 -105 -8 -128 -16 -24 -71 -65 -88 -65 -5 0 -8 29 -8 64
0 61 -14 96 -39 96 -15 0 -41 -37 -40 -56 1 -10 1 -45 1 -77 l-2 -58 -97 3
-98 3 5 45 c8 91 6 122 -12 133 -32 21 -56 -16 -64 -95 l-7 -70 -33 5 c-19 3
-61 18 -94 33 -82 37 -140 102 -166 185 -35 116 -18 401 40 674 12 58 13 72 2
84 -37 37 -75 -19 -110 -163 l-22 -89 -58 54 c-32 30 -83 92 -115 139 -57 85
-86 105 -108 78 -6 -7 -17 -76 -24 -153 -7 -77 -13 -142 -15 -144 -7 -9 -93
72 -146 138 -75 93 -111 163 -168 331 -45 131 -47 135 -75 135 -25 0 -38 -14
-115 -127 l-87 -127 -26 77 c-45 130 -59 253 -55 467 3 184 2 190 -17 193 -12
2 -71 -34 -153 -92 l-132 -95 0 67 c0 74 35 253 73 377 14 44 35 113 48 153
24 79 20 104 -17 110 -10 1 -61 -18 -113 -43 -52 -25 -100 -44 -108 -41 -9 4
-11 1 -7 -5 9 -14 -35 -1 -52 16 -17 17 5 105 61 246 48 118 81 183 183 361
65 112 70 126 50 146 -18 18 -38 15 -152 -23 -119 -40 -117 -39 -113 -22 1 7
-9 12 -27 12 -16 1 -31 6 -33 12 -7 20 47 164 104 277 30 61 98 180 150 264
86 138 95 156 85 178 -15 31 -25 31 -200 -11 -81 -19 -155 -37 -164 -39 -16
-4 -16 -2 -2 25 9 18 20 27 26 23 8 -5 9 -2 5 9 -6 17 3 21 32 18 11 -2 11 0
0 12 -10 11 -16 12 -21 3 -9 -13 -10 -3 -2 18 3 9 10 13 15 10 5 -3 6 1 3 9
-10 27 128 232 294 436 45 56 51 81 27 101 -13 10 -47 9 -181 -5 -90 -10 -167
-15 -171 -11 -3 3 -13 1 -20 -6 -8 -6 -5 5 7 25 12 20 27 34 33 30 6 -3 7 -1
3 6 -10 15 42 84 56 75 6 -4 8 -2 4 4 -9 15 76 114 174 203 45 41 103 93 128
115 42 38 45 44 35 66 -10 22 -21 25 -149 42 -77 9 -149 20 -162 23 -23 6 -23
6 10 40 92 97 337 271 360 257 7 -5 8 -2 3 6 -6 10 -4 12 9 7 9 -4 15 -3 12 1
-5 8 73 50 162 87 42 18 66 56 46 75 -5 5 -70 34 -144 65 -74 32 -138 60 -142
64 -20 18 221 127 372 170 125 34 270 62 365 69 86 7 90 8 93 32 2 20 -18 44
-108 129 l-111 105 78 20 c107 28 388 29 545 2 59 -10 114 -16 123 -12 27 10
16 50 -50 183 -36 72 -65 133 -65 137 0 11 109 6 208 -10 114 -18 285 -72 360
-115 43 -24 56 -27 73 -18 21 11 21 15 14 170 -4 90 -3 159 2 159 4 0 38 -18
75 -39z m1565 -382 c55 -27 117 -97 137 -156 36 -106 9 -257 -58 -330 l-31
-35 -63 74 c-35 41 -88 93 -117 116 -53 41 -167 102 -192 102 -9 0 -13 17 -13
51 0 143 195 247 337 178z m283 -660 c36 -10 91 -34 123 -52 l58 -33 -93 -64
c-51 -35 -96 -68 -99 -72 -3 -5 -18 20 -34 54 -16 34 -45 92 -66 129 l-36 67
41 -5 c22 -2 70 -13 106 -24z m140 -344 c83 -42 177 -112 235 -177 51 -56 49
-61 -20 -71 -22 -3 -35 -3 -28 0 7 2 10 10 7 17 -3 8 1 20 8 27 7 8 13 21 13
29 0 26 -75 13 -102 -18 -25 -29 -30 -68 -11 -74 7 -3 3 -7 -9 -10 -19 -5 -26
3 -51 56 -16 33 -57 103 -90 155 -34 51 -62 97 -62 103 0 13 32 2 110 -37z
m1094 -136 c34 -27 35 -72 3 -94 -37 -24 -156 -50 -176 -38 -42 27 -12 104 52
134 54 24 88 24 121 -2z m52 -185 c17 -68 -45 -127 -151 -144 -120 -19 -163 3
-135 70 12 30 51 50 99 51 14 0 53 11 86 24 79 31 93 31 101 -1z m-981 -127
c22 -17 61 -51 87 -75 l47 -45 -46 -59 c-25 -32 -49 -58 -52 -59 -53 -6 -81
-2 -81 11 0 10 -3 11 -8 3 -4 -6 -7 51 -7 127 0 89 4 136 10 132 6 -3 28 -19
50 -35z m955 -94 c0 -26 -29 -69 -53 -80 -71 -33 -133 -24 -163 22 -24 36 -6
52 77 66 35 7 75 17 89 25 21 11 27 11 38 -3 6 -9 12 -23 12 -30z m-134 -183
c13 0 24 -4 24 -8 0 -4 7 -62 15 -129 19 -152 11 -181 -45 -173 -33 4 -42 28
-51 141 -5 63 -11 131 -14 151 -5 37 -5 37 21 28 14 -6 36 -10 50 -10z m-900
-46 c-2 -20 -11 -43 -21 -52 -14 -14 -16 -14 -12 -2 3 8 11 32 18 53 15 46 19
47 15 1z m342 -829 c44 -49 86 -125 76 -134 -5 -5 -61 -13 -124 -19 -144 -13
-150 -16 -150 -56 0 -25 14 -49 63 -107 105 -122 190 -240 232 -319 40 -76 95
-203 90 -208 -1 -2 -60 11 -130 28 -70 16 -134 30 -141 30 -8 0 -19 -11 -25
-24 -10 -21 -6 -33 24 -83 79 -131 167 -347 165 -405 -2 -51 1 -70 10 -64 5 3
9 0 10 -7 1 -7 7 -42 13 -78 11 -64 5 -135 -9 -112 -4 7 -20 10 -35 9 -18 -2
-43 8 -75 30 -70 50 -111 43 -113 -21 -1 -29 -1 -29 -9 -5 -7 23 -8 23 -9 3
-1 -12 -7 -24 -13 -26 -8 -3 -6 -6 5 -6 9 -1 17 -6 17 -12 0 -5 5 -7 11 -3 8
4 10 -10 7 -49 -1 -31 1 -53 6 -50 14 9 -1 -252 -19 -327 -8 -36 -25 -91 -36
-122 l-21 -58 -35 58 c-19 31 -44 67 -55 79 -20 21 -20 26 -8 63 7 21 17 37
22 34 5 -3 6 6 2 20 -4 17 -2 26 6 26 6 0 9 4 5 9 -3 6 4 61 15 123 42 233 47
486 14 773 -23 203 -97 526 -175 771 -2 6 50 47 116 92 66 44 145 103 175 131
30 27 58 50 61 51 4 0 21 -16 37 -35z m-4783 -545 c-3 -5 -12 -10 -18 -10 -7
0 -6 4 3 10 19 12 23 12 15 0z m-40 -10 c3 -5 1 -10 -4 -10 -6 0 -11 5 -11 10
0 6 2 10 4 10 3 0 8 -4 11 -10z"/>
<path d="M4907 7853 c-8 -15 13 -71 30 -77 36 -14 41 34 7 69 -17 16 -31 19
-37 8z"/>
<path d="M4050 7591 c-8 -16 -4 -22 27 -41 32 -19 38 -20 51 -6 14 14 14 18
-8 41 -28 30 -55 32 -70 6z"/>
<path d="M3242 7377 c-10 -12 -3 -18 45 -35 86 -30 123 -35 130 -16 3 9 -3 25
-15 37 -28 27 -141 38 -160 14z"/>
<path d="M2938 7181 c-123 -40 -219 -124 -280 -247 -63 -127 -64 -251 -3 -382
33 -72 134 -171 214 -212 154 -77 371 -75 371 4 0 39 -23 48 -128 51 -126 3
-191 27 -271 101 -100 92 -138 211 -107 332 48 187 232 293 438 252 72 -14
116 -34 182 -84 54 -42 80 -45 100 -13 23 34 10 62 -48 106 -131 101 -322 138
-468 92z"/>
<path d="M5664 7031 c-41 -25 -59 -72 -58 -153 0 -55 6 -78 35 -135 29 -57 41
-71 81 -91 83 -42 156 -1 179 102 10 48 9 62 -10 125 -42 138 -141 205 -227
152z"/>
<path d="M4261 6615 c-44 -38 -65 -101 -59 -182 11 -149 108 -251 211 -222 38
10 81 51 96 92 27 70 4 198 -46 265 -56 74 -145 95 -202 47z"/>
<path d="M5265 6589 c-71 -12 -133 -35 -172 -65 -26 -20 -33 -32 -33 -59 0
-62 117 -135 216 -135 66 0 144 103 144 189 0 31 -6 44 -26 60 -28 22 -48 24
-129 10z m-20 -88 c8 -13 -35 -41 -62 -41 -35 0 -28 28 10 39 43 12 45 12 52
2z"/>
<path d="M2132 6223 c-28 -14 -35 -14 -42 -2 -5 7 -10 11 -12 9 -2 -3 -12 -16
-23 -30 l-20 -25 21 18 c24 20 41 23 25 4 -8 -10 -7 -14 4 -14 8 0 12 4 9 9
-3 4 -1 8 5 8 5 0 13 -4 16 -10 3 -5 15 -10 26 -10 10 0 19 5 19 10 0 6 3 9 8
9 4 -1 14 -1 22 0 13 1 13 3 0 10 -8 6 -18 7 -24 4 -5 -4 -7 1 -3 10 3 10 5
17 4 17 -1 0 -17 -8 -35 -17z"/>
<path d="M5415 6205 c-59 -49 -159 -77 -287 -83 -72 -3 -135 0 -163 7 -70 18
-85 5 -85 -72 0 -165 98 -349 219 -412 80 -41 194 -24 269 40 46 40 101 144
121 230 18 72 25 283 10 301 -17 21 -50 16 -84 -11z m-160 -268 c46 -24 95
-77 95 -102 0 -31 -46 -84 -87 -101 -69 -29 -124 -13 -186 55 -76 84 -85 136
-27 158 45 17 166 11 205 -10z"/>
<path d="M2631 6157 c-23 -26 -28 -63 -8 -70 13 -4 102 36 111 52 8 13 -20 33
-41 29 -10 -1 -23 1 -29 4 -6 4 -21 -3 -33 -15z"/>
<path d="M2017 6143 c-15 -15 -5 -23 26 -22 30 2 30 2 4 6 -15 2 -25 9 -22 14
7 10 1 12 -8 2z"/>
<path d="M2775 5779 c-62 -26 -182 -105 -195 -129 -16 -30 -12 -48 15 -66 23
-15 26 -15 68 20 23 19 79 51 122 71 112 51 110 50 113 74 8 52 -39 64 -123
30z"/>
<path d="M2090 5570 c0 -5 9 -10 21 -10 11 0 17 5 14 10 -3 6 -13 10 -21 10
-8 0 -14 -4 -14 -10z"/>
<path d="M2001 5498 c-1 -20 14 -24 25 -6 4 6 3 8 -4 4 -5 -3 -13 0 -15 6 -3
8 -6 6 -6 -4z"/>
<path d="M3195 5356 c-56 -26 -79 -49 -88 -86 -12 -50 4 -51 88 -9 105 52 113
60 91 93 -20 32 -28 32 -91 2z"/>
<path d="M2708 5290 c-58 -17 -178 -112 -205 -164 -18 -35 -10 -72 17 -81 17
-5 37 9 95 64 41 39 92 79 113 90 44 22 57 44 42 71 -12 23 -29 29 -62 20z"/>
<path d="M3355 5060 c-211 -107 -291 -140 -552 -231 -250 -86 -291 -106 -357
-173 -72 -72 -100 -133 -104 -226 -3 -70 -1 -80 36 -155 22 -44 52 -92 68
-107 33 -30 98 -68 118 -68 7 0 33 -9 58 -19 136 -61 389 -18 770 130 118 47
258 122 355 193 45 33 62 69 46 95 -17 28 -48 23 -109 -17 -195 -127 -476
-241 -736 -297 -116 -25 -242 -33 -252 -17 -3 5 8 22 24 37 19 19 30 39 30 57
0 39 -20 36 -87 -12 -31 -22 -63 -40 -71 -40 -27 0 -80 40 -92 70 -12 28 -10
33 11 57 13 14 41 36 62 49 39 25 50 60 22 70 -20 8 -70 -13 -107 -44 -16 -13
-32 -21 -36 -18 -15 16 -3 87 22 129 49 85 109 120 311 187 289 95 711 282
779 345 41 38 30 97 -18 94 -12 -1 -97 -41 -191 -89z"/>
<path d="M2085 4854 c8 -9 21 -13 28 -11 9 4 9 6 -1 6 -7 1 -11 5 -8 9 2 4 -4
9 -15 9 -17 2 -18 0 -4 -13z"/>
<path d="M2030 4841 c0 -6 4 -13 10 -16 6 -3 7 1 4 9 -7 18 -14 21 -14 7z"/>
<path d="M2021 4804 c0 -11 3 -14 6 -6 3 7 2 16 -1 19 -3 4 -6 -2 -5 -13z"/>
<path d="M3227 3929 c-42 -35 -90 -120 -81 -144 6 -14 34 -35 48 -35 3 0 18
19 33 43 15 23 47 63 71 89 52 54 51 78 0 78 -23 0 -46 -10 -71 -31z"/>
<path d="M2854 3831 c-73 -44 -133 -144 -134 -221 0 -51 13 -70 47 -70 25 0
30 9 57 102 9 31 32 79 51 107 38 55 42 73 22 89 -10 8 -21 6 -43 -7z"/>
<path d="M3211 3524 c-95 -85 -126 -254 -47 -254 30 0 46 19 46 55 0 33 28
100 60 145 25 36 26 66 0 80 -16 9 -26 4 -59 -26z"/>
<path d="M3376 3098 c-14 -20 -14 -25 8 -62 30 -51 68 -76 93 -60 10 6 19 18
21 27 3 16 -82 117 -99 117 -4 0 -15 -10 -23 -22z"/>
<path d="M6140 7245 c0 -10 30 -65 36 -65 2 0 0 9 -6 19 -12 24 -13 34 -2 27
5 -3 9 1 9 9 0 8 -9 15 -19 15 -10 0 -18 -2 -18 -5z"/>
<path d="M6210 7160 c0 -5 11 -10 25 -10 14 0 28 0 32 -1 4 0 9 5 11 13 2 9 0
8 -7 -2 -7 -10 -11 -11 -11 -2 0 6 -11 12 -25 12 -14 0 -25 -4 -25 -10z"/>
<path d="M6846 3836 c-9 -34 -8 -36 28 -36 30 0 33 2 28 25 -2 14 -7 25 -11
26 -3 0 -13 2 -23 4 -10 2 -18 -5 -22 -19z"/>
<path d="M6713 3555 c0 -22 2 -30 4 -17 2 12 2 30 0 40 -3 9 -5 -1 -4 -23z"/>
<path d="M6584 3355 c12 -50 20 -102 17 -120 -2 -16 -1 -17 12 -6 9 7 22 11
31 9 16 -3 16 -2 16 38 0 16 -4 23 -12 18 -7 -5 -9 0 -6 14 6 23 -15 48 -31
38 -5 -4 -15 2 -21 11 -10 16 -11 16 -6 -2z"/>
<path d="M1479 8033 c-125 -129 -162 -206 -125 -259 37 -52 235 -110 342 -100
121 10 147 43 120 152 -23 92 -83 209 -133 261 -33 34 -49 43 -76 43 -30 0
-46 -12 -128 -97z m164 -20 c34 -49 76 -142 92 -203 l13 -49 -28 -6 c-66 -15
-300 39 -300 68 0 30 163 227 188 227 5 0 21 -17 35 -37z"/>
<path d="M6502 8098 c6 -18 28 -21 28 -4 0 9 -7 16 -16 16 -9 0 -14 -5 -12
-12z"/>
<path d="M1107 7413 c-20 -24 -83 -178 -97 -239 -17 -73 -8 -91 58 -122 74
-34 221 -42 326 -18 83 20 96 29 96 70 0 69 -135 239 -234 296 -62 35 -124 40
-149 13z m135 -101 c53 -40 168 -172 168 -193 0 -10 -87 -21 -166 -21 -77 1
-153 18 -161 38 -2 6 9 47 26 90 17 44 35 91 40 107 6 15 15 27 20 27 5 0 38
-21 73 -48z"/>
<path d="M8612 5912 c-15 -16 -55 -74 -89 -129 -69 -110 -76 -143 -42 -187 24
-30 141 -102 199 -122 71 -24 118 11 213 156 41 63 52 106 38 143 -11 27 -131
114 -204 148 -58 26 -84 24 -115 -9z m138 -96 c41 -24 83 -53 94 -64 18 -21
18 -22 -10 -69 -45 -78 -97 -143 -114 -143 -17 0 -144 72 -172 97 -16 14 -15
19 21 72 21 31 50 77 65 104 15 26 31 47 35 47 3 0 40 -20 81 -44z"/>
<path d="M8205 5247 c-48 -16 -155 -74 -214 -117 -32 -24 -41 -37 -41 -59 0
-39 23 -55 139 -92 285 -91 437 -16 345 170 -45 89 -136 128 -229 98z m123
-90 c18 -14 52 -82 52 -102 0 -23 -48 -37 -111 -32 -55 5 -199 46 -199 57 0
10 94 62 145 81 50 19 88 17 113 -4z"/>
</g>
</svg>
